<?xml version="1.0" encoding="UTF-8"?><svg id="Layer_2" xmlns="http://www.w3.org/2000/svg" viewBox="0 0 22.96 23"><defs><style>.cls-1{fill:#f5f5f5;}</style></defs><g id="Layer_4"><g><path class="cls-1" d="M12.78,0c.36,.1,.68,.26,.91,.57,.26,.34,.29,.75,.34,1.15,.05,.39,.09,.79,.15,1.18,.01,.08,.1,.18,.17,.21,.33,.15,.68,.28,1.01,.43,.12,.06,.2,.04,.3-.04,.41-.33,.82-.65,1.24-.97,.65-.5,1.4-.46,1.98,.12,.48,.48,.96,.96,1.44,1.44,.56,.57,.61,1.31,.12,1.95-.32,.43-.65,.85-.99,1.28-.08,.1-.08,.17-.03,.28,.15,.33,.28,.68,.43,1.01,.04,.08,.13,.16,.21,.18,.5,.08,1.01,.14,1.51,.19,.86,.1,1.38,.67,1.38,1.53,0,.66,0,1.32,0,1.98,0,.83-.48,1.39-1.29,1.51-.51,.08-1.02,.14-1.53,.19-.16,.02-.25,.07-.31,.23-.12,.33-.26,.65-.4,.97-.05,.11-.05,.18,.03,.28,.33,.41,.66,.83,.98,1.26,.5,.66,.45,1.4-.13,1.99-.47,.48-.95,.96-1.43,1.43-.59,.58-1.33,.62-1.98,.12-.41-.32-.83-.64-1.24-.97-.1-.08-.18-.09-.3-.04-.32,.15-.64,.28-.97,.4-.15,.05-.21,.13-.22,.29-.06,.53-.12,1.06-.2,1.58-.1,.65-.47,1.07-1.11,1.23-.03,0-.05,.02-.08,.04h-2.6s-.05-.03-.08-.04c-.64-.17-1.01-.58-1.11-1.23-.08-.52-.14-1.05-.2-1.58-.02-.16-.08-.23-.22-.29-.32-.11-.63-.24-.93-.38-.14-.07-.23-.07-.36,.03-.41,.33-.83,.66-1.26,.98-.63,.47-1.37,.42-1.93-.13-.48-.48-.96-.96-1.44-1.45-.58-.59-.62-1.33-.12-1.99,.31-.41,.63-.82,.95-1.22,.09-.11,.11-.2,.04-.34-.15-.31-.28-.63-.39-.95-.05-.15-.13-.21-.29-.22-.51-.05-1.02-.12-1.53-.19-.37-.05-.71-.18-.93-.48C.22,13.31,.12,13.05,0,12.8,0,11.92,0,11.04,0,10.15c.01-.02,.03-.05,.04-.07,.19-.64,.62-1,1.28-1.09,.51-.07,1.02-.13,1.53-.19,.15-.02,.22-.07,.27-.21,.12-.32,.25-.64,.39-.95,.06-.13,.06-.22-.03-.34-.32-.4-.64-.81-.95-1.22-.51-.67-.47-1.41,.12-2,.47-.47,.94-.94,1.41-1.41,.59-.59,1.33-.64,2-.13,.42,.32,.83,.64,1.24,.96,.09,.07,.16,.1,.28,.05,.34-.15,.69-.28,1.03-.44,.07-.03,.15-.12,.17-.2,.06-.39,.1-.79,.15-1.18,.05-.38,.06-.78,.3-1.11,.24-.34,.57-.52,.95-.62h2.6Zm7.08,5.13c-.08-.13-.14-.27-.24-.37-.45-.47-.92-.92-1.38-1.38-.29-.29-.48-.3-.8-.05-.51,.39-1.02,.79-1.52,1.19-.2,.16-.4,.18-.64,.07-.52-.23-1.04-.46-1.57-.65-.28-.1-.41-.27-.44-.55-.07-.63-.15-1.26-.23-1.89-.05-.37-.22-.52-.6-.52-.64,0-1.27,0-1.91,0-.41,0-.57,.15-.62,.55-.08,.63-.16,1.26-.23,1.89-.03,.27-.17,.42-.42,.52-.52,.2-1.04,.41-1.55,.64-.27,.12-.47,.11-.7-.07-.49-.39-.99-.78-1.48-1.16-.34-.26-.52-.25-.82,.05-.44,.44-.89,.89-1.33,1.33-.3,.31-.31,.49-.04,.84,.38,.49,.76,.99,1.14,1.47,.19,.23,.19,.45,.06,.72-.23,.49-.44,1-.62,1.51-.1,.29-.27,.42-.56,.45-.63,.07-1.26,.15-1.89,.24-.36,.05-.51,.22-.51,.58,0,.64,0,1.29,0,1.93,0,.39,.15,.56,.54,.61,.63,.08,1.26,.16,1.89,.23,.28,.03,.43,.17,.53,.43,.19,.52,.41,1.04,.64,1.55,.12,.26,.11,.46-.07,.68-.4,.5-.79,1.01-1.18,1.52-.23,.3-.22,.5,.04,.77,.45,.45,.9,.9,1.35,1.35,.31,.31,.49,.32,.83,.06,.5-.39,1-.78,1.5-1.17,.2-.16,.4-.18,.64-.07,.52,.23,1.04,.46,1.57,.65,.28,.1,.41,.27,.44,.55,.07,.63,.15,1.26,.23,1.89,.05,.37,.22,.52,.6,.52,.64,0,1.27,0,1.91,0,.4,0,.57-.15,.62-.55,.08-.63,.16-1.26,.23-1.89,.03-.27,.17-.42,.42-.52,.52-.2,1.04-.41,1.55-.64,.27-.12,.47-.11,.7,.07,.5,.4,1.01,.79,1.52,1.19,.29,.22,.49,.21,.75-.04,.46-.45,.91-.91,1.36-1.37,.3-.3,.31-.49,.05-.82-.39-.51-.79-1.02-1.18-1.52-.16-.2-.17-.39-.07-.62,.23-.52,.46-1.05,.66-1.59,.1-.27,.26-.4,.54-.43,.64-.07,1.27-.15,1.91-.24,.36-.05,.51-.22,.51-.59,0-.65,0-1.3,0-1.95,0-.36-.15-.53-.5-.57-.64-.09-1.27-.17-1.91-.24-.28-.03-.45-.16-.55-.44-.19-.52-.41-1.04-.64-1.55-.12-.26-.11-.46,.07-.68,.4-.5,.79-1.01,1.18-1.53,.08-.1,.13-.23,.21-.38Z"/><path class="cls-1" d="M11.33,16.29c-2.68-.13-4.75-2.34-4.64-4.95,.12-2.66,2.34-4.75,4.93-4.63,2.67,.12,4.76,2.35,4.64,4.95-.13,2.67-2.34,4.76-4.93,4.64Zm.15-8.62c-2.11,0-3.82,1.7-3.82,3.82,0,2.12,1.69,3.83,3.81,3.84,2.12,0,3.84-1.71,3.83-3.83,0-2.12-1.71-3.82-3.82-3.82Z"/></g></g></svg>