<?xml version="1.0" encoding="UTF-8"?><svg id="Layer_2" xmlns="http://www.w3.org/2000/svg" viewBox="0 0 135.18 29.51"><defs><style>.cls-1{fill:#f5f5f5;}</style></defs><g id="Layer_1-2"><g><path class="cls-1" d="M6.73,28.8H0c.91-5.41,1.8-10.71,2.69-16.02,.5-2.98,1.06-5.94,1.49-8.93,.15-1.03,.54-1.37,1.55-1.31,1.77,.1,3.93-.5,5.2,.32,1.18,.76,1.43,2.99,2.05,4.59,1.12,2.91,2.21,5.83,3.42,9.03,.29-.54,.51-.87,.65-1.22,1.53-3.8,3.07-7.59,4.54-11.41,.35-.92,.73-1.42,1.83-1.32,1.8,.17,4.16-.47,5.27,.45,1.03,.85,.77,3.3,1.03,5.05,1.04,6.87,2.07,13.74,3.13,20.74h-6.77c-.62-4.85-1.24-9.7-1.91-14.96-.35,.67-.56,.99-.7,1.34-1.74,4.17-3.51,8.34-5.18,12.54-.39,.98-.92,1.22-1.91,1.23-1.06,.02-1.48-.37-1.84-1.31-1.73-4.51-3.54-8.99-5.64-13.47-.71,4.86-1.42,9.72-2.15,14.66Z"/><path class="cls-1" d="M57.9,12.43V0h6.21V28.79h-6.09c-.06-.47-.13-.97-.22-1.66-1.8,1.94-3.98,2.6-6.47,2.3-2.11-.26-3.91-1.16-5.35-2.73-3.31-3.59-3.45-9.46-.31-13.21,3-3.6,7.4-4.03,12.23-1.06Zm-3.89,11.58c2.37,0,4.1-1.69,4.11-4.02,.01-2.33-1.69-4.07-4.03-4.11-2.43-.04-4.21,1.71-4.18,4.11,.03,2.35,1.72,4.01,4.1,4.01Z"/><path class="cls-1" d="M80.43,12.46c.09-.56,.15-.95,.23-1.4h6.1V28.77h-6.13c-.05-.48-.1-.98-.16-1.55-3.82,3.12-8.48,2.95-11.67-.34-3.52-3.63-3.68-9.75-.35-13.56,3.03-3.46,7.86-3.88,11.98-.86Zm-3.71,11.54c2.38-.03,4.07-1.74,4.05-4.07-.03-2.41-1.82-4.12-4.25-4.05-2.33,.06-4.02,1.83-3.97,4.17,.05,2.34,1.79,3.99,4.17,3.96Z"/><path class="cls-1" d="M120.13,21h-13.14c-.12,1.49,.26,2.63,1.47,3.38,1.39,.86,3.1,1.16,4.25,.11,1.32-1.21,2.68-1.09,4.15-1.1,.97-.01,1.93,0,2.91,0-.41,3.93-5.04,6.62-10.31,6.06-5.94-.63-9.37-4.74-8.82-10.58,.54-5.7,4.9-8.96,11.25-8.4,5.36,.47,8.77,4.75,8.24,10.54Zm-5.92-3.76c-.52-1.89-1.77-2.8-3.66-2.74-1.82,.06-3,1.01-3.34,2.74h7Z"/><path class="cls-1" d="M135.16,16.51c-3.52-1.37-5.41-1.12-6.8,.82-1.16,1.62-1.11,3.89,.13,5.42,1.42,1.77,3.5,2,6.67,.63,0,1.55,.07,3.02-.05,4.47-.03,.37-.57,.88-.98,1.01-3.84,1.26-7.4,.68-10.34-2.16-2.93-2.84-3.5-6.38-2.14-10.13,1.36-3.77,4.29-5.65,8.19-6.15,.27-.03,.54-.03,.81-.04,3.89-.08,4.51,.52,4.51,4.35,0,.54,0,1.08,0,1.76Z"/><path class="cls-1" d="M97.12,5.69c0,1.35,.08,2.58-.02,3.81-.1,1.26,.41,1.64,1.58,1.51,.58-.07,1.17-.01,1.9-.01v5.14h-3.36v12.63h-6.35v-12.45c-.72-.08-1.29-.14-1.98-.22v-5c.6-.07,1.17-.13,1.91-.21V5.69h6.32Z"/><path class="cls-1" d="M40.99,28.83h-6.07V11.13h6.07V28.83Z"/><path class="cls-1" d="M43.72,2.63c2.21,0,4.42-.03,6.63,0,1.86,.03,2.97,1.06,3,2.66,.03,1.61-1.08,2.7-2.95,2.72-4.47,.04-8.94,.04-13.42,0-1.85-.02-3.01-1.11-3.02-2.67-.01-1.63,1.18-2.69,3.12-2.71,2.21-.02,4.42,0,6.63,0h0Z"/></g></g></svg>