<?xml version="1.0" encoding="UTF-8"?><svg id="Layer_2" xmlns="http://www.w3.org/2000/svg" viewBox="0 0 33 33"><defs><style>.cls-1{fill:#f2f2f2;}</style></defs><g id="Layer_4"><path class="cls-1" d="M15.47,0C16.16,0,16.84,0,17.53,0c.08,.02,.16,.04,.25,.05,.85,.13,1.71,.21,2.54,.4,6.35,1.45,11.35,6.77,12.43,13.2,.1,.6,.17,1.21,.25,1.81v2.06c-.02,.08-.04,.17-.05,.25-.11,.76-.18,1.54-.34,2.29-1.32,6.4-6.79,11.63-13.23,12.68-.61,.1-1.23,.17-1.84,.25h-2.06c-.07-.02-.14-.04-.22-.05-.75-.11-1.51-.18-2.26-.33C6.6,31.34,1.3,25.83,.26,19.41,.16,18.78,.09,18.16,0,17.53c0-.69,0-1.37,0-2.06,.11-.73,.18-1.47,.32-2.19C1.55,6.71,7.03,1.34,13.62,.25,14.24,.15,14.85,.08,15.47,0Zm10.94,27.13c4-3.61,5.94-9.8,3.75-15.7C27.93,5.44,21.91,1.34,15.05,2.01,8.77,2.62,3.52,7.29,2.24,13.57c-.63,3.07-.3,6.04,.99,8.9,.8,1.78,1.92,3.33,3.37,4.68,.99-3.15,2.97-5.37,5.98-6.71-1.87-1.32-2.99-3.07-3.2-5.33-.21-2.26,.51-4.22,2.13-5.81,2.78-2.74,7.27-2.73,10.05,.02,1.39,1.38,2.12,3.06,2.13,5.02,.01,2.59-1.13,4.59-3.22,6.1,3,1.34,4.98,3.56,5.96,6.69Zm-10.41,3.93c3.28,.01,6.05-.81,8.42-2.33,.27-.17,.31-.34,.24-.63-.86-3.62-3.8-6.16-7.51-6.47-4.13-.34-7.94,2.48-8.81,6.55-.05,.25,0,.38,.22,.52,2.41,1.55,5.05,2.33,7.44,2.36ZM11.26,14.41c-.01,2.9,2.32,5.25,5.22,5.26,2.9,.01,5.25-2.32,5.26-5.22,.01-2.9-2.31-5.24-5.22-5.27-2.88-.02-5.25,2.33-5.26,5.22Z"/></g></svg>