<?xml version="1.0" encoding="UTF-8"?><svg id="Layer_2" xmlns="http://www.w3.org/2000/svg" xmlns:xlink="http://www.w3.org/1999/xlink" viewBox="0 0 482 179.73"><defs><style>.cls-1{fill:#343a75;}.cls-2{clip-path:url(#clippath-2);}.cls-3{clip-path:url(#clippath-1);}.cls-4{font-size:15.14px;}.cls-4,.cls-5{fill:#1d2160;}.cls-4,.cls-6{font-family:Poppins-Medium, Poppins;font-weight:500;}.cls-7{fill:#ededf4;}.cls-8{fill:#5f669b;}.cls-9{clip-path:url(#clippath);}.cls-10{fill:none;}.cls-6{fill:#25282d;font-size:16.44px;letter-spacing:.04em;}</style><clipPath id="clippath"><path class="cls-10" d="M63.15,0C28.27,0,0,28.27,0,63.15s28.27,63.15,63.15,63.15,63.15-28.27,63.15-63.15S98.02,0,63.15,0Zm0,110.89c-26.37,0-47.74-21.37-47.74-47.74S36.78,15.4,63.15,15.4s47.74,21.37,47.74,47.74-21.37,47.74-47.74,47.74Z"/></clipPath><clipPath id="clippath-1"><path class="cls-10" d="M241,0c-34.87,0-63.15,28.27-63.15,63.15s28.27,63.15,63.15,63.15,63.15-28.27,63.15-63.15S275.87,0,241,0Zm0,110.89c-26.37,0-47.74-21.37-47.74-47.74s21.37-47.74,47.74-47.74,47.74,21.37,47.74,47.74-21.37,47.74-47.74,47.74Z"/></clipPath><clipPath id="clippath-2"><path class="cls-10" d="M418.85,0c-34.87,0-63.15,28.27-63.15,63.15s28.27,63.15,63.15,63.15,63.15-28.27,63.15-63.15S453.73,0,418.85,0Zm0,110.89c-26.37,0-47.74-21.37-47.74-47.74s21.37-47.74,47.74-47.74,47.74,21.37,47.74,47.74-21.37,47.74-47.74,47.74Z"/></clipPath></defs><g id="Layer_9"><g><g><g class="cls-9"><path class="cls-7" d="M63.15,0C28.27,0,0,28.27,0,63.15s28.27,63.15,63.15,63.15,63.15-28.27,63.15-63.15S98.02,0,63.15,0Zm0,110.89c-26.37,0-47.74-21.37-47.74-47.74S36.78,15.4,63.15,15.4s47.74,21.37,47.74,47.74-21.37,47.74-47.74,47.74Z"/><rect class="cls-8" x="63.15" width="63.15" height="63.15"/></g><text class="cls-6" transform="translate(40.23 68.65)"><tspan x="0" y="0">DATA</tspan></text></g><g><g class="cls-3"><path class="cls-7" d="M241,0c-34.87,0-63.15,28.27-63.15,63.15s28.27,63.15,63.15,63.15,63.15-28.27,63.15-63.15S275.87,0,241,0Zm0,110.89c-26.37,0-47.74-21.37-47.74-47.74s21.37-47.74,47.74-47.74,47.74,21.37,47.74,47.74-21.37,47.74-47.74,47.74Z"/><rect class="cls-1" x="241" width="63.15" height="126.29"/></g><text class="cls-6" transform="translate(218.09 68.65)"><tspan x="0" y="0">DATA</tspan></text></g><g><g class="cls-2"><path class="cls-7" d="M418.85,0c-34.87,0-63.15,28.27-63.15,63.15s28.27,63.15,63.15,63.15,63.15-28.27,63.15-63.15S453.73,0,418.85,0Zm0,110.89c-26.37,0-47.74-21.37-47.74-47.74s21.37-47.74,47.74-47.74,47.74,21.37,47.74,47.74-21.37,47.74-47.74,47.74Z"/><polygon class="cls-5" points="418.85 63.15 418.85 0 482 0 484.97 120.26 418.85 63.15"/></g><text class="cls-6" transform="translate(395.94 68.65)"><tspan x="0" y="0">DATA</tspan></text></g><g><text class="cls-4" transform="translate(50.01 170.92)"><tspan x="0" y="0">LOSS</tspan></text><rect class="cls-8" x="4.17" y="152.68" width="21.63" height="21.63"/></g><g><text class="cls-4" transform="translate(219.49 170.92)"><tspan x="0" y="0">INVESTMENT</tspan></text><rect class="cls-1" x="182.65" y="152.68" width="21.63" height="21.63"/></g><g><text class="cls-4" transform="translate(405.36 170.92)"><tspan x="0" y="0">PROFIT</tspan></text><rect class="cls-5" x="360.52" y="152.68" width="21.63" height="21.63"/></g></g></g></svg>