<?xml version="1.0" encoding="UTF-8"?><svg id="Layer_2" xmlns="http://www.w3.org/2000/svg" viewBox="0 0 20.83 24.2"><defs><style>.cls-1{fill:#f2f2f2;}</style></defs><g id="Layer_4"><path class="cls-1" d="M13.72,20.9c-.08,1.95-1.56,3.29-3.29,3.29-1.66,0-3.23-1.27-3.32-3.29-.1,0-.19,0-.29,0-1.5,0-3,0-4.5,0-1.14,0-2.04-.71-2.26-1.79-.13-.63,0-1.21,.35-1.74,.55-.83,1.11-1.65,1.65-2.49,.08-.12,.13-.28,.13-.43,0-2.04,0-4.07,0-6.11,0-3.7,2.25-6.81,5.76-7.95,4.51-1.48,9.49,1.38,10.48,6.03,.13,.63,.2,1.29,.21,1.94,.03,2.03,0,4.05,.02,6.08,0,.15,.05,.32,.14,.45,.55,.85,1.13,1.68,1.68,2.53,.85,1.33,.17,3.03-1.34,3.41-.22,.05-.46,.07-.69,.07-1.47,0-2.93,0-4.4,0-.1,0-.2,0-.32,0Zm-3.33-1.11c2.68,0,5.37,0,8.05,0,.16,0,.33,0,.48-.05,.75-.21,1.05-1.06,.61-1.74-.58-.9-1.18-1.79-1.78-2.68-.14-.21-.2-.42-.2-.67,0-2.07,0-4.14,0-6.21,0-.4-.03-.81-.08-1.21C16.83,2.44,11.5-.36,7.21,1.88c-2.58,1.35-3.89,3.55-3.93,6.46-.03,2.1,0,4.21,0,6.31,0,.25-.06,.46-.2,.67-.6,.89-1.19,1.78-1.78,2.68-.34,.53-.25,1.15,.2,1.53,.25,.21,.55,.26,.86,.26,2.67,0,5.35,0,8.02,0Zm-2.16,1.12c.02,1.32,1.11,2.28,2.43,2.16,1.08-.09,2.05-1.19,1.91-2.16h-4.34Z"/></g></svg>