<?xml version="1.0" encoding="UTF-8"?><svg id="Layer_2" xmlns="http://www.w3.org/2000/svg" viewBox="0 0 30 30"><defs><style>.cls-1{fill:none;stroke:#f2f2f2;stroke-miterlimit:10;}.cls-2{fill:#f2f2f2;}</style></defs><g id="Layer_4"><g><path class="cls-2" d="M18.6,8.34c.91,.83,1.37,1.96,1.37,3.4s-.47,2.62-1.42,3.38c-.95,.75-2.21,1.13-3.78,1.13l-.09,1.75h-2.2l-.11-3.49h.73c1.44,0,2.54-.19,3.3-.58,.76-.38,1.14-1.12,1.14-2.2,0-.78-.23-1.4-.68-1.84-.45-.44-1.08-.67-1.88-.67s-1.43,.21-1.89,.64c-.46,.43-.69,1.03-.69,1.8h-2.38c0-.89,.2-1.68,.6-2.38s.97-1.24,1.72-1.62c.75-.38,1.62-.58,2.61-.58,1.51,0,2.72,.42,3.63,1.24Zm-6.21,14.11c-.31-.31-.47-.7-.47-1.16s.16-.84,.47-1.16c.31-.31,.7-.47,1.16-.47s.82,.16,1.13,.47c.31,.31,.47,.7,.47,1.16s-.16,.84-.47,1.16c-.31,.31-.69,.47-1.13,.47s-.84-.16-1.16-.47Z"/><circle class="cls-1" cx="15" cy="15" r="14.5"/></g></g></svg>