<?xml version="1.0" encoding="UTF-8"?><svg xmlns="http://www.w3.org/2000/svg" xmlns:xlink="http://www.w3.org/1999/xlink" viewBox="0 0 486.96 314.28"><defs><style>.cls-1{fill:#fff;}.cls-2{fill:url(#_Áåçûìÿííûé_ãðàäèåíò_56);opacity:.8;}.cls-2,.cls-3{mix-blend-mode:lighten;}.cls-4{fill:url(#_Áåçûìÿííûé_ãðàäèåíò_54-4);}.cls-5,.cls-6{fill:#0f054c;}.cls-7{fill:url(#_Áåçûìÿííûé_ãðàäèåíò_37-3);}.cls-8,.cls-9{fill:#24126a;}.cls-10{fill:url(#_Áåçûìÿííûé_ãðàäèåíò_54);}.cls-11{clip-path:url(#clippath-2);}.cls-12{fill:url(#_Áåçûìÿííûé_ãðàäèåíò_54-3);}.cls-13{isolation:isolate;}.cls-14{opacity:.2;}.cls-14,.cls-15,.cls-16{fill:#42e8e0;}.cls-17{fill:url(#_Áåçûìÿííûé_ãðàäèåíò_37-2);}.cls-15,.cls-9{opacity:.4;}.cls-18,.cls-6{opacity:.3;}.cls-19{opacity:.1;}.cls-20{clip-path:url(#clippath);}.cls-21{fill:none;}.cls-22{fill:url(#_Áåçûìÿííûé_ãðàäèåíò_37);}.cls-23{fill:url(#_Áåçûìÿííûé_ãðàäèåíò_41);}.cls-3{fill:url(#_Áåçûìÿííûé_ãðàäèåíò_45);opacity:.5;}.cls-24{fill:url(#_Áåçûìÿííûé_ãðàäèåíò_37-4);}.cls-25{fill:#5351af;}.cls-26{fill:#9ffff8;}.cls-27{fill:url(#_Áåçûìÿííûé_ãðàäèåíò_54-2);}.cls-28{fill:#453c9e;opacity:.51;}</style><linearGradient id="_Áåçûìÿííûé_ãðàäèåíò_41" x1="46.96" y1="143.39" x2="471.25" y2="143.39" gradientUnits="userSpaceOnUse"><stop offset="0" stop-color="#bcbeff"/><stop offset=".15" stop-color="#a2a6f5"/><stop offset=".39" stop-color="#8188e8"/><stop offset=".61" stop-color="#6a72de"/><stop offset=".82" stop-color="#5b65d8"/><stop offset="1" stop-color="#5761d7"/></linearGradient><linearGradient id="_Áåçûìÿííûé_ãðàäèåíò_56" x1="318.2" y1="203.42" x2="199.76" y2="46.25" gradientUnits="userSpaceOnUse"><stop offset="0" stop-color="#42e8e0"/><stop offset=".11" stop-color="#36b5bf"/><stop offset=".22" stop-color="#2c87a0"/><stop offset=".34" stop-color="#235f86"/><stop offset=".46" stop-color="#1b3e71"/><stop offset=".58" stop-color="#162560"/><stop offset=".71" stop-color="#121355"/><stop offset=".85" stop-color="#0f084e"/><stop offset="1" stop-color="#0f054c"/></linearGradient><radialGradient id="_Áåçûìÿííûé_ãðàäèåíò_45" cx="237.86" cy="121.17" fx="237.86" fy="121.17" r="332.09" gradientUnits="userSpaceOnUse"><stop offset="0" stop-color="#42e8e0"/><stop offset=".11" stop-color="#36b5bf"/><stop offset=".22" stop-color="#2c87a0"/><stop offset=".34" stop-color="#235f86"/><stop offset=".46" stop-color="#1b3e71"/><stop offset=".58" stop-color="#162560"/><stop offset=".71" stop-color="#121355"/><stop offset=".85" stop-color="#0f084e"/><stop offset="1" stop-color="#0f054c"/></radialGradient><clipPath id="clippath"><path class="cls-3" d="M185.82,241.98L56.06,167.04c-5.79-3.34-5.06-9.18,1.62-13.04L309.55,8.62c6.69-3.86,16.8-4.28,22.59-.94l129.76,74.94c5.79,3.34,5.06,9.18-1.62,13.04L208.41,241.05c-6.69,3.86-16.8,4.28-22.59,.94Z"/></clipPath><linearGradient id="_Áåçûìÿííûé_ãðàäèåíò_54" x1="7.48" y1="272.9" x2="67.13" y2="307.34" gradientUnits="userSpaceOnUse"><stop offset="0" stop-color="#bcbeff"/><stop offset=".23" stop-color="#aaadf7"/><stop offset=".68" stop-color="#7b82e5"/><stop offset="1" stop-color="#5761d7"/></linearGradient><linearGradient id="_Áåçûìÿííûé_ãðàäèåíò_37" x1="0" y1="285.92" x2="75.18" y2="285.92" gradientUnits="userSpaceOnUse"><stop offset="0" stop-color="#e9e9fd"/><stop offset=".36" stop-color="#d2d2f9"/><stop offset=".71" stop-color="#c4c3f6"/><stop offset="1" stop-color="#c0bff6"/></linearGradient><linearGradient id="_Áåçûìÿííûé_ãðàäèåíò_54-2" x1="7.48" y1="225.81" x2="67.13" y2="260.25" xlink:href="#_Áåçûìÿííûé_ãðàäèåíò_54"/><linearGradient id="_Áåçûìÿííûé_ãðàäèåíò_37-2" y1="238.83" x2="75.18" y2="238.83" xlink:href="#_Áåçûìÿííûé_ãðàäèåíò_37"/><linearGradient id="_Áåçûìÿííûé_ãðàäèåíò_54-3" x1="43.91" y1="77.53" x2="103.56" y2="111.97" xlink:href="#_Áåçûìÿííûé_ãðàäèåíò_54"/><linearGradient id="_Áåçûìÿííûé_ãðàäèåíò_37-3" x1="36.44" y1="90.55" x2="111.61" y2="90.55" xlink:href="#_Áåçûìÿííûé_ãðàäèåíò_37"/><linearGradient id="_Áåçûìÿííûé_ãðàäèåíò_54-4" x1="43.91" y1="33.69" x2="103.56" y2="68.12" xlink:href="#_Áåçûìÿííûé_ãðàäèåíò_54"/><linearGradient id="_Áåçûìÿííûé_ãðàäèåíò_37-4" x1="36.44" y1="46.7" x2="111.61" y2="46.7" xlink:href="#_Áåçûìÿííûé_ãðàäèåíò_37"/><clipPath id="clippath-2"><polygon class="cls-21" points="359.5 261.37 375.56 270.63 439.54 233.69 439.54 162.66 359.5 208.87 359.5 261.37"/></clipPath></defs><g class="cls-13"><g id="Layer_2"><g id="Layer_1-2"><g><path class="cls-16" d="M195.69,287.04c-3.85,0-7.53-.78-10.28-2.36L50.85,206.99c-2.7-1.56-4.19-3.73-4.18-6.11,0-2.85,2.14-5.72,5.86-7.87L309.16,44.84c6.98-4.03,17.58-4.46,23.64-.97l134.56,77.69c2.7,1.56,4.18,3.73,4.18,6.1,0,2.85-2.14,5.73-5.86,7.88L209.05,283.71c-3.81,2.2-8.71,3.33-13.35,3.33Zm-9.99-2.86c5.89,3.4,16.23,2.97,23.05-.97L465.39,135.04c3.54-2.04,5.57-4.73,5.57-7.37,0-2.16-1.38-4.15-3.9-5.6L332.5,44.38c-5.89-3.4-16.23-2.97-23.05,.97L52.82,193.51c-3.54,2.04-5.57,4.73-5.57,7.37,0,2.16,1.38,4.15,3.89,5.6l134.56,77.69Z"/><g><path class="cls-23" d="M471.25,91.79l-19.33,3.33L332.65,26.25c-5.98-3.45-16.43-3.02-23.34,.97L81.13,158.96l-34.17,5.88v12.11s.01,0,.01,0c-.02,2.21,1.3,4.32,4.02,5.89l134.56,77.69c5.98,3.45,16.43,3.02,23.34-.97L465.53,111.4c3.72-2.15,5.64-4.89,5.7-7.5h.02v-12.12Z"/><path class="cls-8" d="M185.56,248.34L51,170.65c-5.98-3.45-5.23-9.49,1.68-13.48L309.31,9.01c6.91-3.99,17.36-4.42,23.34-.97l134.56,77.69c5.98,3.45,5.23,9.49-1.68,13.48L208.9,247.37c-6.91,3.99-17.36,4.42-23.34,.97Z"/><path class="cls-1" d="M465.53,99.21L208.9,247.37c-6.91,3.99-17.36,4.42-23.34,.97L51,170.65c-2.4-1.39-3.7-3.19-3.97-5.1-.37,2.49,.92,4.92,3.97,6.68l134.56,77.69c5.98,3.45,16.43,3.02,23.34-.97L465.53,100.78c4.14-2.39,6.05-5.51,5.64-8.37-.36,2.4-2.25,4.84-5.64,6.8Z"/><path class="cls-28" d="M185.82,245.33L56.06,170.39c-5.79-3.34-5.06-9.18,1.62-13.04L309.55,11.97c6.69-3.86,16.8-4.28,22.59-.94l129.76,74.94c5.79,3.34,5.06,9.18-1.62,13.04L208.41,244.39c-6.69,3.86-16.8,4.28-22.59,.94Z"/></g><path class="cls-2" d="M195.63,244.65c-3.76,0-7.34-.76-10.02-2.3L55.85,167.4c-2.66-1.53-4.12-3.67-4.12-6.03,0-2.81,2.09-5.63,5.74-7.74L309.34,8.26c6.79-3.92,17.11-4.34,23.01-.94l129.77,74.94c2.65,1.53,4.12,3.67,4.12,6.03,0,2.81-2.09,5.63-5.74,7.74L208.62,241.41c-3.71,2.14-8.47,3.24-12.99,3.24Zm-9.6-3.03c5.66,3.27,15.61,2.85,22.17-.94L460.07,95.31c3.38-1.95,5.32-4.51,5.32-7.02,0-2.04-1.31-3.92-3.7-5.3L331.93,8.05c-5.67-3.27-15.61-2.85-22.17,.94L57.89,154.36c-3.38,1.95-5.32,4.51-5.32,7.01,0,2.04,1.31,3.93,3.7,5.3l129.76,74.94Z"/><g class="cls-18"><path class="cls-3" d="M185.82,241.98L56.06,167.04c-5.79-3.34-5.06-9.18,1.62-13.04L309.55,8.62c6.69-3.86,16.8-4.28,22.59-.94l129.76,74.94c5.79,3.34,5.06,9.18-1.62,13.04L208.41,241.05c-6.69,3.86-16.8,4.28-22.59,.94Z"/><g class="cls-20"><g><path class="cls-26" d="M375.59,168.92l-1.87-.24c-.2-.15-.42-.29-.65-.42L228.68,84.89c-3.73-2.15-10.25-1.88-14.56,.6l-84.23,48.63c-1.12,.65-1.98,1.38-2.57,2.15l-.99-.29v2.91h0c0,1.36,.83,2.66,2.51,3.63l144.39,83.36c3.73,2.15,10.25,1.88,14.56-.6l84.23-48.63c2.41-1.39,3.61-3.18,3.56-4.86h0s0-2.88,0-2.88Z"/><path class="cls-16" d="M273.24,222.97l-144.39-83.36c-3.73-2.15-3.26-5.92,1.05-8.4l84.23-48.63c4.31-2.49,10.82-2.76,14.56-.6l144.39,83.36c3.73,2.15,3.26,5.92-1.04,8.4l-84.23,48.63c-4.31,2.49-10.82,2.76-14.56,.6Z"/></g><g><path class="cls-1" d="M178.03,147.03l-17.83-10.29c-1.66-.96-1.45-2.63,.46-3.74h0c1.92-1.11,4.81-1.23,6.47-.27l17.83,10.29c1.66,.96,1.45,2.63-.46,3.74h0c-1.92,1.11-4.81,1.23-6.47,.27Z"/><path class="cls-1" d="M210.93,166.02l-17.83-10.29c-1.66-.96-1.45-2.63,.46-3.74h0c1.92-1.11,4.81-1.23,6.47-.27l17.83,10.29c1.66,.96,1.45,2.63-.46,3.74h0c-1.92,1.11-4.81,1.23-6.47,.27Z"/><path class="cls-1" d="M243.82,185.01l-17.83-10.29c-1.66-.96-1.45-2.63,.46-3.74h0c1.92-1.11,4.81-1.23,6.47-.27l17.83,10.29c1.66,.96,1.45,2.63-.46,3.74h0c-1.92,1.11-4.81,1.23-6.47,.27Z"/><path class="cls-1" d="M276.72,204l-17.83-10.29c-1.66-.96-1.45-2.63,.46-3.74h0c1.92-1.11,4.81-1.23,6.47-.27l17.83,10.29c1.66,.96,1.45,2.63-.46,3.74h0c-1.92,1.11-4.81,1.23-6.47,.27Z"/></g></g></g><path class="cls-9" d="M434.19,95.07c-1.98,1.14-5.19,1.14-7.17,0-1.98-1.14-1.98-3,0-4.14,1.98-1.14,5.19-1.14,7.17,0,1.98,1.14,1.98,3,0,4.14Z"/><path class="cls-9" d="M406.81,75.12l14.04,8.11c1.72,.99,1.5,2.72-.48,3.86h0c-1.98,1.14-4.98,1.27-6.69,.28l-14.04-8.11c-1.72-.99-1.5-2.72,.48-3.86h0c1.98-1.14,4.98-1.27,6.69-.28Z"/><path class="cls-9" d="M327.9,28.59l14.04,8.11c1.72,.99,1.5,2.72-.48,3.86h0c-1.98,1.14-4.98,1.27-6.69,.28l-14.04-8.11c-1.72-.99-1.5-2.72,.48-3.86h0c1.98-1.14,4.98-1.27,6.69-.28Z"/><path class="cls-16" d="M434.19,90.03c-1.98,1.14-5.19,1.14-7.17,0-1.98-1.14-1.98-3,0-4.14,1.98-1.14,5.19-1.14,7.17,0,1.98,1.14,1.98,3,0,4.14Z"/><path class="cls-16" d="M406.81,70.08l14.04,8.11c1.72,.99,1.5,2.72-.48,3.86h0c-1.98,1.14-4.98,1.27-6.69,.28l-14.04-8.11c-1.72-.99-1.5-2.72,.48-3.86h0c1.98-1.14,4.98-1.27,6.69-.28Z"/><path class="cls-16" d="M327.9,23.56l14.04,8.11c1.72,.99,1.5,2.72-.48,3.86h0c-1.98,1.14-4.98,1.27-6.69,.28l-14.04-8.11c-1.72-.99-1.5-2.72,.48-3.86h0c1.98-1.14,4.98-1.27,6.69-.28Z"/><g><g class="cls-18"><path class="cls-10" d="M75.18,292.47v-6.55s-1.81-1.01-1.81-1.01c-.51,3.09-4.15,5.13-7.19,5.55l-20.72,12.11-9.04,3.26-28.86-14.89,.67-.38c-2.47-1.15-3.8-3.79-5.13-6.19l-1.94,1.16-1.15,.32v6.72H0c0,1.28,.85,2.57,2.54,3.54l28.91,16.69c3.39,1.95,8.89,1.95,12.28,0l28.91-16.69c1.66-.96,2.51-2.22,2.54-3.48,0-.06,0-.11,0-.17h0Z"/><path class="cls-6" d="M66.17,290.46l-20.72,12.11-7.87,2.84v8.86c2.22,0,4.45-.49,6.14-1.47l28.91-16.69c1.66-.96,2.51-2.22,2.54-3.48,0-.06,0-.11,0-.17h0s0-6.55,0-6.55l-1.66-.92h-.17c-.56,3.04-4.16,5.05-7.17,5.47Z"/><path class="cls-22" d="M31.45,306.15l-28.91-16.69c-3.39-1.95-3.39-5.13,0-7.09l28.91-16.69c3.38-1.95,8.89-1.95,12.28,0l28.91,16.69c3.39,1.95,3.39,5.13,0,7.09l-28.91,16.69c-3.39,1.95-8.89,1.95-12.28,0Z"/><g class="cls-18"><path class="cls-5" d="M31.45,306.15l-28.91-16.69c-3.39-1.95-3.39-5.13,0-7.09l28.91-16.69c3.38-1.95,8.89-1.95,12.28,0l28.91,16.69c3.39,1.95,3.39,5.13,0,7.09l-28.91,16.69c-3.39,1.95-8.89,1.95-12.28,0Z"/></g></g><g><path class="cls-16" d="M37.59,281.87c-1.97,0-3.95-.43-5.45-1.3l-28.91-16.69c-1.5-.87-2.33-2.04-2.33-3.29s.83-2.43,2.33-3.29l28.91-16.69c3-1.73,7.89-1.73,10.9,0l28.91,16.69c1.5,.87,2.33,2.04,2.33,3.29s-.83,2.43-2.33,3.29l-28.91,16.69c-1.5,.87-3.48,1.3-5.45,1.3Zm0-42.07c-1.88,0-3.76,.41-5.2,1.24l-28.91,16.69c-1.34,.77-2.07,1.78-2.07,2.85s.74,2.08,2.08,2.85l28.91,16.69c2.86,1.66,7.53,1.66,10.39,0l28.91-16.69c1.34-.77,2.07-1.79,2.07-2.85s-.74-2.08-2.07-2.85l-28.91-16.69c-1.43-.83-3.31-1.24-5.2-1.24Z"/><g><path class="cls-15" d="M75.18,254.18v-9.9l-1.81-1.01c-.51,3.09-4.15,5.13-7.19,5.55l-20.72,12.11-9.04,3.26-28.86-14.89,.67-.39c-2.47-1.15-3.8-3.79-5.13-6.19l-1.94,1.16-1.15,.32v10.07H0c0,1.28,.85,2.57,2.54,3.54l28.91,16.69c3.39,1.95,8.89,1.95,12.28,0l28.91-16.69c1.66-.96,2.51-2.22,2.54-3.48,0-.06,0-.11,0-.17h0Z"/><g><path class="cls-27" d="M75.18,245.38v-6.55l-1.81-1.01c-.51,3.09-4.15,5.13-7.19,5.55l-20.72,12.11-9.04,3.26-28.86-14.89,.67-.39c-2.47-1.15-3.8-3.79-5.13-6.19l-1.94,1.16-1.15,.32v6.72H0c0,1.28,.85,2.57,2.54,3.54l28.91,16.69c3.39,1.95,8.89,1.95,12.28,0l28.91-16.69c1.66-.96,2.51-2.22,2.54-3.48,0-.06,0-.11,0-.17h0Z"/><path class="cls-6" d="M66.17,243.37l-20.72,12.11-7.87,2.84v8.86c2.22,0,4.45-.49,6.14-1.47l28.91-16.69c1.66-.96,2.51-2.22,2.54-3.48,0-.06,0-.11,0-.17h0s0-6.55,0-6.55l-1.66-.92h-.17c-.56,3.04-4.16,5.05-7.17,5.47Z"/><path class="cls-17" d="M31.45,259.06L2.54,242.37c-3.39-1.95-3.39-5.13,0-7.09l28.91-16.69c3.38-1.95,8.89-1.95,12.28,0l28.91,16.69c3.39,1.95,3.39,5.13,0,7.09l-28.91,16.69c-3.39,1.95-8.89,1.95-12.28,0Z"/><path class="cls-25" d="M37.59,256.03c-1.78,0-3.57-.39-4.92-1.17h0l-22.59-13.04c-1.36-.79-2.11-1.85-2.11-2.99s.75-2.2,2.11-2.99l22.59-13.04c2.71-1.57,7.13-1.57,9.85,0l22.59,13.04c1.36,.79,2.11,1.85,2.11,2.99,0,1.14-.75,2.2-2.11,2.99l-22.59,13.04c-1.36,.78-3.14,1.17-4.92,1.17Zm0-33.91c-1.69,0-3.38,.37-4.67,1.12l-22.59,13.04c-1.2,.69-1.86,1.6-1.86,2.55s.66,1.86,1.86,2.55l22.59,13.04c2.57,1.49,6.76,1.49,9.34,0l22.59-13.04c1.2-.69,1.86-1.6,1.86-2.55,0-.95-.66-1.86-1.86-2.55l-22.59-13.04c-1.29-.74-2.98-1.12-4.67-1.12Z"/><path class="cls-1" d="M72.64,242.37l-28.91,16.69c-3.39,1.95-8.89,1.95-12.28,0L2.54,242.37c-1.51-.87-2.35-1.99-2.51-3.14-.2,1.42,.64,2.87,2.51,3.95l28.91,16.69c3.39,1.95,8.89,1.95,12.28,0l28.91-16.69c1.87-1.08,2.71-2.54,2.51-3.95-.16,1.14-1,2.26-2.51,3.14Z"/></g></g></g></g><g class="cls-18"><path class="cls-12" d="M111.61,97.1v-6.55l-1.81-1.01c-.51,3.09-4.15,5.13-7.19,5.55l-20.72,12.11-9.04,3.26-28.86-14.89,.67-.38c-2.47-1.15-3.79-3.79-5.13-6.19l-1.94,1.16-1.15,.32v6.72h0c0,1.28,.85,2.57,2.54,3.54l28.91,16.69c3.39,1.95,8.89,1.95,12.28,0l28.91-16.69c1.67-.96,2.51-2.22,2.54-3.48,0-.06,0-.11,0-.17h0Z"/><path class="cls-6" d="M102.61,95.1l-20.72,12.11-7.87,2.84v8.86c2.22,0,4.45-.49,6.14-1.47l28.91-16.69c1.67-.96,2.51-2.22,2.54-3.48,0-.06,0-.11,0-.17h0s0-6.55,0-6.55l-1.66-.92h-.17c-.57,3.04-4.16,5.05-7.17,5.47Z"/><path class="cls-7" d="M67.89,110.79l-28.91-16.69c-3.39-1.95-3.39-5.13,0-7.09l28.91-16.69c3.38-1.95,8.89-1.95,12.28,0l28.91,16.69c3.39,1.95,3.39,5.13,0,7.09l-28.91,16.69c-3.39,1.95-8.89,1.95-12.28,0Z"/><g class="cls-18"><path class="cls-5" d="M67.89,110.79l-28.91-16.69c-3.39-1.95-3.39-5.13,0-7.09l28.91-16.69c3.38-1.95,8.89-1.95,12.28,0l28.91,16.69c3.39,1.95,3.39,5.13,0,7.09l-28.91,16.69c-3.39,1.95-8.89,1.95-12.28,0Z"/></g></g><g><path class="cls-16" d="M74.03,89.75c-1.97,0-3.95-.43-5.45-1.3l-28.91-16.69c-1.5-.87-2.33-2.04-2.33-3.29s.83-2.43,2.33-3.29l28.91-16.69c3-1.73,7.89-1.73,10.9,0l28.91,16.69c1.5,.87,2.33,2.04,2.33,3.29s-.83,2.43-2.33,3.29l-28.91,16.69c-1.5,.87-3.48,1.3-5.45,1.3Zm0-42.07c-1.88,0-3.76,.41-5.2,1.24l-28.91,16.69c-1.34,.77-2.07,1.79-2.07,2.85s.74,2.08,2.07,2.85l28.91,16.69c2.86,1.66,7.53,1.65,10.39,0l28.91-16.69c1.34-.77,2.07-1.79,2.07-2.85s-.74-2.08-2.07-2.85l-28.91-16.69c-1.43-.83-3.31-1.24-5.2-1.24Z"/><g><path class="cls-15" d="M111.61,62.05v-9.9l-1.81-1.01c-.51,3.09-4.15,5.13-7.19,5.55l-20.72,12.11-9.04,3.26-28.86-14.89,.67-.38c-2.47-1.15-3.79-3.79-5.13-6.19l-1.94,1.16-1.15,.32v10.07h0c0,1.28,.85,2.57,2.54,3.54l28.91,16.69c3.39,1.95,8.89,1.95,12.28,0l28.91-16.69c1.67-.96,2.51-2.22,2.54-3.48,0-.06,0-.11,0-.17h0Z"/><g><path class="cls-4" d="M111.61,53.25v-6.55l-1.81-1.01c-.51,3.09-4.15,5.13-7.19,5.55l-20.72,12.11-9.04,3.26-28.86-14.89,.67-.38c-2.47-1.15-3.79-3.79-5.13-6.19l-1.94,1.16-1.15,.32v6.72h0c0,1.28,.85,2.57,2.54,3.54l28.91,16.69c3.39,1.95,8.89,1.95,12.28,0l28.91-16.69c1.67-.96,2.51-2.22,2.54-3.48,0-.06,0-.11,0-.17h0Z"/><path class="cls-6" d="M102.61,51.25l-20.72,12.11-7.87,2.84v8.86c2.22,0,4.45-.49,6.14-1.47l28.91-16.69c1.67-.96,2.51-2.22,2.54-3.48,0-.06,0-.11,0-.17h0s0-6.55,0-6.55l-1.66-.92h-.17c-.57,3.04-4.16,5.05-7.17,5.47Z"/><path class="cls-24" d="M67.89,66.94l-28.91-16.69c-3.39-1.95-3.39-5.13,0-7.09l28.91-16.69c3.38-1.95,8.89-1.95,12.28,0l28.91,16.69c3.39,1.95,3.39,5.13,0,7.09l-28.91,16.69c-3.39,1.95-8.89,1.95-12.28,0Z"/><path class="cls-25" d="M74.02,63.91c-1.78,0-3.57-.39-4.92-1.17h0l-22.59-13.04c-1.36-.79-2.11-1.85-2.11-2.99,0-1.14,.75-2.2,2.11-2.99l22.59-13.04c2.71-1.56,7.13-1.56,9.85,0l22.59,13.04c1.36,.79,2.11,1.85,2.11,2.99s-.75,2.2-2.11,2.99l-22.59,13.04c-1.36,.78-3.14,1.17-4.92,1.17Zm0-33.91c-1.69,0-3.38,.37-4.67,1.11l-22.59,13.04c-1.2,.69-1.86,1.6-1.86,2.55,0,.95,.66,1.86,1.86,2.55l22.59,13.04c2.57,1.49,6.76,1.49,9.34,0l22.59-13.04c1.2-.69,1.86-1.6,1.86-2.55s-.66-1.86-1.86-2.55l-22.59-13.04c-1.29-.74-2.98-1.11-4.67-1.11Z"/><path class="cls-1" d="M109.08,50.25l-28.91,16.69c-3.39,1.95-8.89,1.95-12.28,0l-28.91-16.69c-1.51-.87-2.35-1.99-2.51-3.14-.2,1.42,.64,2.87,2.51,3.95l28.91,16.69c3.39,1.95,8.89,1.95,12.28,0l28.91-16.69c1.87-1.08,2.71-2.54,2.51-3.95-.16,1.14-1,2.26-2.51,3.14Z"/></g></g></g><g><path class="cls-9" d="M268.27,183.54l-112.16-64.76c-2.9-1.67-2.53-4.6,.81-6.53l65.43-37.78c3.35-1.93,8.41-2.14,11.31-.47l112.16,64.76c2.9,1.67,2.53,4.6-.81,6.53l-65.43,37.78c-3.35,1.93-8.41,2.14-11.31,.47Z"/><path class="cls-26" d="M375.59,88.41l-1.87-.24c-.2-.15-.42-.29-.65-.42L228.68,4.38c-3.73-2.15-10.25-1.88-14.56,.6l-84.23,48.63c-1.12,.65-1.98,1.38-2.57,2.15l-.99-.29v2.91h0c0,1.36,.83,2.66,2.51,3.63l144.39,83.36c3.73,2.15,10.25,1.88,14.56-.6l84.23-48.63c2.41-1.39,3.61-3.18,3.56-4.86h0s0-2.88,0-2.88Z"/><path class="cls-16" d="M273.24,142.46L128.85,59.09c-3.73-2.15-3.26-5.92,1.05-8.4L214.13,2.06c4.31-2.49,10.82-2.76,14.56-.6l144.39,83.36c3.73,2.15,3.26,5.92-1.04,8.4l-84.23,48.63c-4.31,2.49-10.82,2.76-14.56,.6Z"/><polygon class="cls-8" points="296.54 136.81 138.64 45.64 155.4 35.97 313.3 127.13 296.54 136.81"/></g><g><g class="cls-19"><path class="cls-26" d="M370.72,267.83c0-16.3,11.44-36.12,25.56-44.27,7.07-4.08,13.47-4.46,18.1-1.77h0s4.83,2.83,4.83,2.83l-1.4,.13c2.55,3.12,4.03,7.72,4.03,13.57,0,16.3-11.44,36.12-25.56,44.27-4.85,2.8-9.38,3.86-13.25,3.38l.11,1.3-4.91-2.87s-.04-.02-.06-.04l-.2-.12h.01c-4.49-2.73-7.26-8.39-7.26-16.41Z"/><ellipse class="cls-16" cx="401.17" cy="255.93" rx="36.14" ry="20.87" transform="translate(-21.06 475.38) rotate(-60)"/></g><path class="cls-14" d="M399.51,305.11c-22.38,0-44.75-4.92-61.78-14.75-16.55-9.55-25.66-22.27-25.66-35.82s9.12-26.26,25.67-35.82c34.07-19.67,89.5-19.67,123.57,0,16.55,9.56,25.66,22.28,25.66,35.82s-9.12,26.26-25.67,35.82c-17.03,9.83-39.41,14.75-61.78,14.75Zm0-100.64c-22.29,0-44.56,4.9-61.53,14.69-16.39,9.46-25.41,22.03-25.41,35.38s9.03,25.92,25.41,35.38c33.93,19.59,89.13,19.59,123.06,0,16.39-9.46,25.41-22.02,25.41-35.38s-9.02-25.92-25.41-35.38c-16.96-9.79-39.25-14.69-61.53-14.69Z"/><path class="cls-16" d="M399.52,286.01c-13.9,0-27.79-3.05-38.37-9.16h0c-10.3-5.94-15.97-13.86-15.97-22.3,0-8.43,5.67-16.35,15.97-22.3,21.16-12.21,55.58-12.21,76.74,0,10.3,5.94,15.97,13.86,15.97,22.3s-5.67,16.35-15.97,22.3c-10.58,6.11-24.47,9.16-38.37,9.16Zm0-62.42c-13.8,0-27.61,3.03-38.11,9.1-10.13,5.85-15.72,13.62-15.72,21.86,0,8.25,5.58,16.01,15.71,21.86h0c21.02,12.14,55.21,12.14,76.23,0,10.13-5.85,15.72-13.61,15.72-21.86s-5.58-16.01-15.71-21.86c-10.51-6.07-24.31-9.1-38.11-9.1Z"/><g class="cls-11"><g><path class="cls-26" d="M370.72,267.83c0-16.3,11.44-36.12,25.56-44.27,7.07-4.08,13.47-4.46,18.1-1.77h0s4.83,2.83,4.83,2.83l-1.4,.13c2.55,3.12,4.03,7.72,4.03,13.57,0,16.3-11.44,36.12-25.56,44.27-4.85,2.8-9.38,3.86-13.25,3.38l.11,1.3-4.91-2.87s-.04-.02-.06-.04l-.2-.12h.01c-4.49-2.73-7.26-8.39-7.26-16.41Z"/><ellipse class="cls-16" cx="401.17" cy="255.93" rx="36.14" ry="20.87" transform="translate(-21.06 475.38) rotate(-60)"/></g></g></g></g></g></g></g></svg>