<?xml version="1.0" encoding="UTF-8"?><svg id="Layer_2" xmlns="http://www.w3.org/2000/svg" viewBox="0 0 33.32 29.61"><defs><style>.cls-1{fill:#f2f2f2;}</style></defs><g id="Layer_4"><g><path class="cls-1" d="M0,14.82C.02,7.13,5.89,.7,13.56,.06c4.54-.38,8.44,1.07,11.71,4.24,.49,.48,.59,1.05,.3,1.57-.27,.49-.83,.77-1.38,.6-.3-.09-.59-.3-.82-.53-2.48-2.34-5.42-3.49-8.82-3.44-6.01,.1-11.11,4.7-11.88,10.66-.97,7.55,4.98,14.14,12.57,13.9,3.1-.1,5.78-1.24,8.06-3.36,.26-.24,.57-.48,.9-.59,.55-.18,1.11,.12,1.38,.61,.27,.51,.18,1.08-.27,1.54-1.33,1.35-2.88,2.39-4.62,3.14C11.81,32.24,1.54,26.52,.18,16.97c-.1-.71-.12-1.43-.18-2.14Z"/><path class="cls-1" d="M29.02,16.06c-.35,0-.54,0-.72,0-4.41,0-8.83,0-13.24,0-.88,0-1.42-.43-1.47-1.17-.04-.7,.42-1.27,1.12-1.35,.17-.02,.35-.01,.52-.01,4.34,0,8.69,0,13.03,0h.66c-.12-.15-.19-.26-.27-.34-.6-.61-1.22-1.21-1.82-1.82-.6-.61-.64-1.32-.12-1.86,.51-.53,1.28-.53,1.87,.05,1.43,1.42,2.86,2.84,4.27,4.27,.62,.63,.61,1.31-.01,1.95-1.4,1.42-2.82,2.83-4.23,4.24-.59,.59-1.34,.62-1.87,.1-.55-.54-.51-1.27,.11-1.9,.68-.68,1.37-1.36,2.17-2.15Z"/></g></g></svg>